<svg xmlns="http://www.w3.org/2000/svg" viewBox="0 0 1200 820" role="img" aria-label="Bespoke walnut museum cabinet with original brick-built architectural collectibles">
  <defs>
    <linearGradient id="room" x1="0" y1="0" x2="1" y2="1">
      <stop offset="0" stop-color="#fffaf1"/>
      <stop offset="0.58" stop-color="#f8f1e7"/>
      <stop offset="1" stop-color="#ead7be"/>
    </linearGradient>
    <linearGradient id="walnut" x1="0" y1="0" x2="1" y2="1">
      <stop offset="0" stop-color="#4a2e1e"/>
      <stop offset="0.42" stop-color="#21140e"/>
      <stop offset="1" stop-color="#6b442a"/>
    </linearGradient>
    <linearGradient id="inside" x1="0" y1="0" x2="0" y2="1">
      <stop offset="0" stop-color="#f6c879"/>
      <stop offset="0.16" stop-color="#55371f"/>
      <stop offset="1" stop-color="#140d09"/>
    </linearGradient>
    <linearGradient id="glass" x1="0" y1="0" x2="1" y2="1">
      <stop offset="0" stop-color="#ffffff" stop-opacity="0.34"/>
      <stop offset="0.45" stop-color="#ffffff" stop-opacity="0.08"/>
      <stop offset="1" stop-color="#ffffff" stop-opacity="0"/>
    </linearGradient>
    <radialGradient id="spot" cx="50%" cy="18%" r="65%">
      <stop offset="0" stop-color="#ffd98d" stop-opacity="0.85"/>
      <stop offset="0.52" stop-color="#f7b733" stop-opacity="0.22"/>
      <stop offset="1" stop-color="#0f0804" stop-opacity="0"/>
    </radialGradient>
    <filter id="deepShadow" x="-20%" y="-20%" width="140%" height="140%">
      <feDropShadow dx="0" dy="22" stdDeviation="22" flood-color="#1b120b" flood-opacity="0.44"/>
    </filter>
    <filter id="softGlow" x="-30%" y="-30%" width="160%" height="160%">
      <feGaussianBlur stdDeviation="9" result="blur"/>
      <feMerge><feMergeNode in="blur"/><feMergeNode in="SourceGraphic"/></feMerge>
    </filter>
  </defs>

  <rect width="1200" height="820" fill="url(#room)"/>
  <circle cx="112" cy="142" r="8" fill="#f5b301" opacity="0.5"/>
  <circle cx="168" cy="606" r="5" fill="#f5b301" opacity="0.4"/>
  <rect x="100" y="118" width="24" height="24" rx="5" fill="#f5b301" opacity="0.62" transform="rotate(-16 112 130)"/>
  <rect x="1096" y="206" width="18" height="18" rx="4" fill="#f5b301" opacity="0.46" transform="rotate(18 1105 215)"/>

  <g filter="url(#deepShadow)">
    <rect x="64" y="46" width="1072" height="720" rx="48" fill="#fff9ee"/>
    <rect x="92" y="74" width="1016" height="664" rx="34" fill="url(#walnut)"/>
    <rect x="126" y="108" width="948" height="596" rx="23" fill="url(#inside)" stroke="#a87442" stroke-opacity="0.45" stroke-width="2"/>

    <g opacity="0.96">
      <rect x="126" y="300" width="948" height="7" rx="3" fill="#d8b486"/>
      <rect x="126" y="505" width="948" height="7" rx="3" fill="#d8b486"/>
      <rect x="440" y="108" width="8" height="596" rx="4" fill="#ead6b8"/>
      <rect x="755" y="108" width="8" height="596" rx="4" fill="#ead6b8"/>
    </g>

    <g opacity="0.82" filter="url(#softGlow)">
      <ellipse cx="284" cy="132" rx="78" ry="18" fill="#ffd27d"/>
      <ellipse cx="600" cy="132" rx="78" ry="18" fill="#ffd27d"/>
      <ellipse cx="914" cy="132" rx="78" ry="18" fill="#ffd27d"/>
      <ellipse cx="284" cy="326" rx="78" ry="18" fill="#ffd27d"/>
      <ellipse cx="600" cy="326" rx="78" ry="18" fill="#ffd27d"/>
      <ellipse cx="914" cy="326" rx="78" ry="18" fill="#ffd27d"/>
      <ellipse cx="284" cy="532" rx="78" ry="18" fill="#ffd27d"/>
      <ellipse cx="600" cy="532" rx="78" ry="18" fill="#ffd27d"/>
      <ellipse cx="914" cy="532" rx="78" ry="18" fill="#ffd27d"/>
    </g>

    <g opacity="0.72">
      <rect x="126" y="108" width="314" height="192" fill="url(#spot)"/>
      <rect x="448" y="108" width="307" height="192" fill="url(#spot)"/>
      <rect x="763" y="108" width="311" height="192" fill="url(#spot)"/>
      <rect x="126" y="307" width="314" height="198" fill="url(#spot)"/>
      <rect x="448" y="307" width="307" height="198" fill="url(#spot)"/>
      <rect x="763" y="307" width="311" height="198" fill="url(#spot)"/>
      <rect x="126" y="512" width="314" height="192" fill="url(#spot)"/>
      <rect x="448" y="512" width="307" height="192" fill="url(#spot)"/>
      <rect x="763" y="512" width="311" height="192" fill="url(#spot)"/>
    </g>

    <g>
      <g transform="translate(185 160)">
        <rect x="18" y="84" width="190" height="18" rx="5" fill="#16120f"/>
        <rect x="48" y="38" width="130" height="52" rx="8" fill="#c78335"/>
        <rect x="64" y="18" width="98" height="28" rx="7" fill="#273746"/>
        <rect x="70" y="52" width="22" height="32" rx="3" fill="#fff4cf"/>
        <rect x="104" y="52" width="22" height="32" rx="3" fill="#fff4cf"/>
        <rect x="138" y="52" width="22" height="32" rx="3" fill="#fff4cf"/>
        <rect x="88" y="88" width="50" height="11" rx="2" fill="#f5b301"/>
        <text x="113" y="96" text-anchor="middle" font-family="Arial, sans-serif" font-size="10" font-weight="700" fill="#111827">TOWNHOUSE</text>
      </g>

      <g transform="translate(512 150)">
        <rect x="18" y="96" width="188" height="18" rx="5" fill="#15110e"/>
        <rect x="52" y="58" width="118" height="42" rx="8" fill="#e8dfc9"/>
        <circle cx="111" cy="54" r="38" fill="#d7c7a8"/>
        <circle cx="111" cy="54" r="18" fill="#253244"/>
        <rect x="78" y="76" width="22" height="24" rx="3" fill="#6b442a"/>
        <rect x="122" y="76" width="22" height="24" rx="3" fill="#6b442a"/>
        <rect x="70" y="102" width="84" height="10" rx="2" fill="#f5b301"/>
        <text x="112" y="110" text-anchor="middle" font-family="Arial, sans-serif" font-size="10" font-weight="700" fill="#111827">OBSERVATORY</text>
      </g>

      <g transform="translate(845 144)">
        <rect x="10" y="104" width="190" height="18" rx="5" fill="#16120f"/>
        <rect x="82" y="34" width="46" height="74" rx="7" fill="#f4ead6"/>
        <rect x="72" y="22" width="66" height="18" rx="6" fill="#d9472a"/>
        <rect x="88" y="0" width="34" height="26" rx="5" fill="#243142"/>
        <rect x="92" y="54" width="26" height="24" rx="4" fill="#f5d283"/>
        <rect x="52" y="86" width="106" height="24" rx="7" fill="#2f6f59"/>
        <rect x="76" y="108" width="60" height="10" rx="2" fill="#f5b301"/>
        <text x="106" y="116" text-anchor="middle" font-family="Arial, sans-serif" font-size="10" font-weight="700" fill="#111827">LIGHTHOUSE</text>
      </g>

      <g transform="translate(178 360)">
        <rect x="0" y="86" width="216" height="18" rx="5" fill="#16120f"/>
        <rect x="22" y="40" width="172" height="52" rx="7" fill="#d5c4a3"/>
        <rect x="44" y="16" width="128" height="28" rx="6" fill="#f1e8d4"/>
        <rect x="36" y="52" width="18" height="38" rx="2" fill="#6b442a"/>
        <rect x="70" y="52" width="18" height="38" rx="2" fill="#6b442a"/>
        <rect x="104" y="52" width="18" height="38" rx="2" fill="#6b442a"/>
        <rect x="138" y="52" width="18" height="38" rx="2" fill="#6b442a"/>
        <rect x="84" y="92" width="48" height="10" rx="2" fill="#f5b301"/>
        <text x="108" y="100" text-anchor="middle" font-family="Arial, sans-serif" font-size="10" font-weight="700" fill="#111827">MUSEUM</text>
      </g>

      <g transform="translate(496 354)">
        <rect x="10" y="96" width="210" height="18" rx="5" fill="#16120f"/>
        <rect x="44" y="48" width="142" height="52" rx="7" fill="#7f1d1d"/>
        <rect x="64" y="24" width="102" height="30" rx="7" fill="#334155"/>
        <rect x="34" y="70" width="26" height="30" rx="4" fill="#d7b56d"/>
        <rect x="84" y="70" width="26" height="30" rx="4" fill="#d7b56d"/>
        <rect x="134" y="70" width="26" height="30" rx="4" fill="#d7b56d"/>
        <rect x="170" y="70" width="26" height="30" rx="4" fill="#d7b56d"/>
        <rect x="72" y="102" width="86" height="10" rx="2" fill="#f5b301"/>
        <text x="115" y="110" text-anchor="middle" font-family="Arial, sans-serif" font-size="10" font-weight="700" fill="#111827">RAIL STATION</text>
      </g>

      <g transform="translate(844 350)">
        <rect x="0" y="100" width="214" height="18" rx="5" fill="#16120f"/>
        <rect x="34" y="60" width="146" height="44" rx="9" fill="#6b442a"/>
        <rect x="24" y="42" width="34" height="64" rx="7" fill="#9a6b43"/>
        <rect x="156" y="42" width="34" height="64" rx="7" fill="#9a6b43"/>
        <rect x="78" y="24" width="58" height="34" rx="8" fill="#d1b073"/>
        <rect x="72" y="104" width="70" height="10" rx="2" fill="#f5b301"/>
        <text x="107" y="112" text-anchor="middle" font-family="Arial, sans-serif" font-size="10" font-weight="700" fill="#111827">HILLTOP CASTLE</text>
      </g>

      <g transform="translate(196 570)">
        <rect x="0" y="86" width="198" height="18" rx="5" fill="#16120f"/>
        <rect x="26" y="34" width="146" height="58" rx="10" fill="#dbe8dd"/>
        <rect x="44" y="48" width="28" height="40" rx="4" fill="#7da58c"/>
        <rect x="86" y="48" width="28" height="40" rx="4" fill="#7da58c"/>
        <rect x="128" y="48" width="28" height="40" rx="4" fill="#7da58c"/>
        <rect x="58" y="18" width="82" height="24" rx="10" fill="#eef7ee"/>
        <rect x="52" y="92" width="94" height="10" rx="2" fill="#f5b301"/>
        <text x="99" y="100" text-anchor="middle" font-family="Arial, sans-serif" font-size="10" font-weight="700" fill="#111827">CONSERVATORY</text>
      </g>

      <g transform="translate(520 570)">
        <rect x="0" y="86" width="190" height="18" rx="5" fill="#16120f"/>
        <rect x="20" y="60" width="150" height="34" rx="8" fill="#c59a6b"/>
        <rect x="38" y="26" width="114" height="40" rx="7" fill="#efeadf"/>
        <circle cx="95" cy="26" r="22" fill="#e7d6bd"/>
        <rect x="64" y="94" width="62" height="10" rx="2" fill="#f5b301"/>
        <text x="95" y="102" text-anchor="middle" font-family="Arial, sans-serif" font-size="10" font-weight="700" fill="#111827">CIVIC GALLERY</text>
      </g>

      <g transform="translate(832 574)">
        <rect x="0" y="82" width="204" height="18" rx="5" fill="#16120f"/>
        <rect x="28" y="48" width="148" height="40" rx="8" fill="#8f5b2e"/>
        <rect x="44" y="22" width="116" height="32" rx="8" fill="#1f2937"/>
        <rect x="54" y="58" width="24" height="28" rx="4" fill="#f5d283"/>
        <rect x="92" y="58" width="24" height="28" rx="4" fill="#f5d283"/>
        <rect x="130" y="58" width="24" height="28" rx="4" fill="#f5d283"/>
        <rect x="60" y="88" width="84" height="10" rx="2" fill="#f5b301"/>
        <text x="102" y="96" text-anchor="middle" font-family="Arial, sans-serif" font-size="10" font-weight="700" fill="#111827">ATELIER ROW</text>
      </g>
    </g>

    <rect x="126" y="108" width="948" height="596" rx="23" fill="url(#glass)"/>
    <path d="M148 124 C252 240 314 472 254 686" stroke="#fff" stroke-opacity="0.22" stroke-width="15" fill="none"/>
    <path d="M1008 132 C1080 256 1078 554 1004 684" stroke="#fff" stroke-opacity="0.18" stroke-width="13" fill="none"/>
    <rect x="92" y="72" width="1016" height="668" rx="35" fill="none" stroke="#ffffff" stroke-opacity="0.42"/>
    <rect x="1048" y="338" width="44" height="164" rx="22" fill="#1b130e" opacity="0.8"/>
  </g>
</svg>
