<svg xmlns="http://www.w3.org/2000/svg" viewBox="0 0 1200 820" role="img" aria-label="Museum lit cabinet of premium collectibles">
  <defs>
    <linearGradient id="cabinet" x1="0" y1="0" x2="1" y2="1">
      <stop offset="0" stop-color="#111827"/>
      <stop offset="0.45" stop-color="#05070b"/>
      <stop offset="1" stop-color="#2b211a"/>
    </linearGradient>
    <linearGradient id="glass" x1="0" y1="0" x2="1" y2="1">
      <stop offset="0" stop-color="#ffffff" stop-opacity="0.18"/>
      <stop offset="1" stop-color="#ffffff" stop-opacity="0"/>
    </linearGradient>
    <filter id="shadow" x="-20%" y="-20%" width="140%" height="140%">
      <feDropShadow dx="0" dy="18" stdDeviation="18" flood-color="#000" flood-opacity="0.45"/>
    </filter>
  </defs>
  <rect width="1200" height="820" fill="#f8fafc"/>
  <rect x="38" y="28" width="1050" height="760" rx="42" fill="url(#cabinet)"/>
  <rect x="80" y="70" width="970" height="680" rx="20" fill="#080b10" stroke="#2f3745" stroke-width="3"/>
  <g opacity="0.9">
    <line x1="80" y1="250" x2="1050" y2="250" stroke="#394252" stroke-width="3"/>
    <line x1="80" y1="470" x2="1050" y2="470" stroke="#394252" stroke-width="3"/>
    <line x1="565" y1="70" x2="565" y2="750" stroke="#394252" stroke-width="3"/>
  </g>
  <g opacity="0.65">
    <ellipse cx="300" cy="105" rx="90" ry="18" fill="#fbbf24"/>
    <ellipse cx="805" cy="105" rx="90" ry="18" fill="#fbbf24"/>
    <ellipse cx="310" cy="324" rx="90" ry="18" fill="#fbbf24"/>
    <ellipse cx="805" cy="324" rx="90" ry="18" fill="#fbbf24"/>
  </g>
  <g filter="url(#shadow)">
    <g transform="translate(185 128)">
      <rect x="0" y="74" width="260" height="32" rx="6" fill="#9ca3af"/>
      <rect x="24" y="42" width="210" height="40" rx="10" fill="#d1d5db"/>
      <circle cx="48" cy="92" r="8" fill="#111827"/><circle cx="218" cy="92" r="8" fill="#111827"/>
      <rect x="58" y="18" width="145" height="28" rx="8" fill="#e5e7eb"/>
      <rect x="114" y="0" width="34" height="30" rx="8" fill="#cbd5e1"/>
    </g>
    <g transform="translate(700 112)">
      <rect x="0" y="98" width="260" height="16" fill="#d6b178"/>
      <path d="M25 98 L55 34 L85 98 Z" fill="#d9c3a5"/>
      <path d="M95 98 L130 18 L166 98 Z" fill="#caa46d"/>
      <path d="M175 98 L210 38 L245 98 Z" fill="#d9c3a5"/>
    </g>
    <g transform="translate(190 292)">
      <rect x="0" y="108" width="280" height="32" rx="8" fill="#8b5a2b"/>
      <rect x="18" y="54" width="244" height="64" rx="8" fill="#b45309"/>
      <rect x="38" y="72" width="36" height="44" fill="#f8fafc"/>
      <rect x="92" y="72" width="36" height="44" fill="#f8fafc"/>
      <rect x="146" y="72" width="36" height="44" fill="#f8fafc"/>
      <rect x="200" y="72" width="36" height="44" fill="#f8fafc"/>
      <path d="M18 54 L140 0 L262 54 Z" fill="#f97316"/>
    </g>
    <g transform="translate(724 300)">
      <rect x="38" y="98" width="220" height="24" rx="6" fill="#8b5a2b"/>
      <path d="M150 0 C210 36 238 72 282 100 C206 96 114 96 18 100 C66 70 96 35 150 0Z" fill="#991b1b"/>
      <rect x="135" y="18" width="8" height="88" fill="#fbbf24"/>
      <rect x="194" y="40" width="7" height="62" fill="#fbbf24"/>
    </g>
    <g transform="translate(210 525)">
      <path d="M18 94 C42 22 210 14 262 90 L246 116 L34 116 Z" fill="#020617"/>
      <circle cx="72" cy="118" r="25" fill="#111827" stroke="#94a3b8" stroke-width="8"/>
      <circle cx="220" cy="118" r="25" fill="#111827" stroke="#94a3b8" stroke-width="8"/>
      <rect x="90" y="58" width="90" height="30" rx="10" fill="#1e293b"/>
    </g>
    <g transform="translate(760 526)">
      <rect x="0" y="54" width="210" height="120" rx="10" fill="#0f766e"/>
      <rect x="16" y="26" width="178" height="34" rx="8" fill="#ef4444"/>
      <rect x="30" y="80" width="34" height="56" fill="#f8fafc"/>
      <rect x="88" y="80" width="34" height="56" fill="#f8fafc"/>
      <rect x="146" y="80" width="34" height="56" fill="#f8fafc"/>
    </g>
  </g>
  <rect x="80" y="70" width="970" height="680" rx="20" fill="url(#glass)"/>
  <path d="M1040 92 C1120 200 1118 584 1038 730" stroke="#ffffff" stroke-opacity="0.16" stroke-width="18" fill="none"/>
  <rect x="1018" y="300" width="70" height="260" rx="35" fill="#0f172a" opacity="0.65"/>
</svg>
